<svg width="196" height="206" viewBox="0 0 196 206" fill="none" xmlns="http://www.w3.org/2000/svg">
<ellipse cx="148.644" cy="120.409" rx="12.7274" ry="9.20423" transform="rotate(-67.6272 148.644 120.409)" fill="#2D81E0"/>
<path d="M98.8506 3L192.851 37" stroke="#2D81E0" stroke-width="5" stroke-linecap="round"/>
<path d="M3 38.351L98 3.35096" stroke="#2D81E0" stroke-width="5" stroke-linecap="round"/>
<path d="M3 38.351L99 78.351" stroke="#2D81E0" stroke-width="5" stroke-linecap="round"/>
<path d="M3 163.351L99 203.351" stroke="#2D81E0" stroke-width="5" stroke-linecap="round"/>
<path d="M99 78.351L193 38.351" stroke="#2D81E0" stroke-width="5" stroke-linecap="round"/>
<path d="M99 203.351L193 163.351" stroke="#2D81E0" stroke-width="5" stroke-linecap="round"/>
<path d="M193 163.351L193 38.351" stroke="#2D81E0" stroke-width="5" stroke-linecap="round"/>
<path d="M99 203.351L99 78.351" stroke="#2D81E0" stroke-width="5" stroke-linecap="round"/>
<path d="M3 163.351L3.00001 39.351" stroke="#2D81E0" stroke-width="5" stroke-linecap="round"/>
<ellipse cx="118.913" cy="41.4819" rx="13.2099" ry="6.45951" transform="rotate(-8.3455 118.913 41.4819)" fill="#2D81E0"/>
<ellipse cx="69.3417" cy="37.8381" rx="13.5145" ry="6.6849" transform="rotate(-8.3455 69.3417 37.8381)" fill="#2D81E0"/>
<ellipse cx="24.0614" cy="81.18" rx="11.5093" ry="7.82465" transform="rotate(-123.844 24.0614 81.18)" fill="#2D81E0"/>
<ellipse cx="23.9091" cy="136.268" rx="11.5093" ry="7.82465" transform="rotate(-123.844 23.9091 136.268)" fill="#2D81E0"/>
<ellipse cx="75.9091" cy="156.268" rx="11.5093" ry="7.82465" transform="rotate(-123.844 75.9091 156.268)" fill="#2D81E0"/>
<ellipse cx="49.9091" cy="120.268" rx="11.5093" ry="7.82465" transform="rotate(-123.844 49.9091 120.268)" fill="#2D81E0"/>
<ellipse cx="75.9091" cy="102.268" rx="11.5093" ry="7.82465" transform="rotate(-123.844 75.9091 102.268)" fill="#2D81E0"/>
</svg>
